<?xml version="1.0" standalone="no"?>
<!DOCTYPE svg PUBLIC "-//W3C//DTD SVG 20010904//EN"
 "http://www.w3.org/TR/2001/REC-SVG-20010904/DTD/svg10.dtd">
<svg version="1.0" xmlns="http://www.w3.org/2000/svg"
 width="300.000000pt" height="300.000000pt" viewBox="0 0 300.000000 300.000000"
 preserveAspectRatio="xMidYMid meet">
<metadata>
Created by potrace 1.14, written by Peter Selinger 2001-2017
</metadata>
<g transform="translate(0.000000,300.000000) scale(0.100000,-0.100000)"
fill="#000000" stroke="none">
<path d="M599 2679 c-20 -12 -46 -39 -58 -59 -21 -38 -21 -38 -21 -1115 0
-1192 -4 -1118 64 -1170 107 -81 256 -5 256 131 l0 34 55 0 c48 0 60 4 80 26
20 22 25 37 25 80 l0 54 164 0 c128 0 166 -3 175 -14 7 -8 23 -17 36 -20 24
-6 25 -9 25 -102 0 -112 13 -150 66 -190 l37 -29 363 -3 c405 -3 410 -3 460
64 27 35 29 44 33 146 2 77 7 108 16 108 6 0 24 11 39 25 25 23 27 30 25 97
-2 60 -6 76 -25 95 -13 13 -30 23 -39 23 -13 0 -15 69 -15 639 l0 639 31 12
c36 15 49 44 49 110 0 67 -14 99 -49 111 l-29 10 -4 109 c-3 104 -4 110 -34
147 -51 62 -63 64 -465 61 -345 -3 -359 -4 -386 -24 -61 -45 -73 -77 -73 -190
0 -81 -3 -104 -14 -104 -7 0 -25 -9 -39 -20 -23 -18 -40 -20 -185 -20 l-160 0
-4 61 c-6 79 -27 99 -104 99 l-54 0 0 35 c0 88 -64 156 -153 162 -40 3 -60 -1
-88 -18z m740 -513 c7 -8 23 -17 36 -20 l25 -6 0 -640 c0 -534 -2 -640 -14
-640 -7 0 -25 -9 -39 -20 -23 -18 -40 -20 -186 -20 l-161 0 0 680 0 680 164 0
c128 0 166 -3 175 -14z"/>
</g>
</svg>
